<svg width="24" height="24" viewBox="0 0 24 24" xmlns="http://www.w3.org/2000/svg" xmlns:xlink="http://www.w3.org/1999/xlink">
    <defs>
        <path d="M16.64 0C13.622 0 5.638 2.835.63 6.85a.074.074 0 0 0 .013.005 1.399 1.399 0 0 0-.151.132c-.648.648-.658 1.69-.024 2.327.19.189.414.32.655.394l.147.036.054.014 4.502 1.119c.335.082.617.24.837.457.22.222.377.504.46.84l1.118 4.5.013.055.037.146c.075.242.204.465.394.655.314.314.727.47 1.142.47a1.673 1.673 0 0 0 1.316-.645l.006.014c4.717-5.883 7.804-15.873 6.582-17.092l-.006-.004c-.002 0-.002-.004-.004-.005C17.54.087 17.166 0 16.64 0m0 .9c.172 0 .293.011.374.024l.067.033c.395 1.533-1.935 9.275-5.776 14.709l-.008-.016-.873 1.165a.772.772 0 0 1-.596.285.712.712 0 0 1-.664-.446l-.05-.196-1.116-4.498a2.663 2.663 0 0 0-.701-1.265 2.68 2.68 0 0 0-1.252-.691L1.55 8.889l.001-.002-.043-.012-.022-.004-.098-.024a.662.662 0 0 1-.28-.169c-.286-.284-.275-.757.03-1.062.02-.02.04-.037.061-.054l.738-.58C6.77 3.422 13.905.9 16.64.9" id="r2pgxf0gba"/>
    </defs>
    <g fill="none" fill-rule="evenodd">
        <g transform="translate(3 3.75)">
            <mask id="te7bpkz09b" fill="#fff">
                <use xlink:href="#r2pgxf0gba"/>
            </mask>
            <use fill="#A4A4A4" fill-rule="nonzero" xlink:href="#r2pgxf0gba"/>
            <path d="M13.692 5.294c1.806.26 3.259 1.728 3.513 3.509.185 1.264-.194 1.973-1.305 2.95l-.585.5-.289.26-.108.108-.102.115-.126.152-.09.12-.077.12-.124.227a1.846 1.846 0 0 0-.176.646l-.008 1.152v1.95l-.151.147h-2.021l-.152-.146v-1.951l.03-1.06.022-.328c.022-.266.05-.502.084-.623l.074-.23.012-.047.023-.056.02-.033.083-.186.088-.17.101-.17.009.026.027-.089.119-.163c.143-.185.305-.353.5-.526l.208-.175.185-.146.633-.478c.547-.437.776-.77.814-1.264.075-.87-.58-1.712-1.467-1.893-.87-.18-1.725.258-2.085 1.003l-.117.27c-.17.338-.479.575-.841.623l-.139.01h-.202c-.719 0-1.236-.672-1.024-1.332C9.642 6.22 11.591 5 13.692 5.294z" stroke="#FFF" stroke-width="2" fill="#FFF" fill-rule="nonzero" mask="url(#te7bpkz09b)"/>
        </g>
        <path d="M17.064 18.757h-2.021l-.152.146v1.95l.152.147h2.02l.152-.146v-1.951l-.151-.146zm-1.481-2.983-.12.163-.035.062a3.653 3.653 0 0 0-.19.341l-.083.186-.02.033-.022.056-.012.047c-.137.374-.21.793-.21 1.266l.152.146h2.02l.152-.146c0-.3.063-.57.184-.823l.124-.228c.048-.08.102-.157.167-.24l.126-.151c.067-.081.134-.15.21-.223l.29-.26.368-.313c1.277-1.078 1.718-1.794 1.521-3.137-.254-1.781-1.707-3.249-3.513-3.51-2.101-.294-4.05.927-4.644 2.823-.212.66.305 1.331 1.024 1.331h.202c.422 0 .79-.252.98-.631l.052-.118c.311-.837 1.221-1.347 2.15-1.156.888.18 1.542 1.023 1.467 1.893-.038.495-.267.827-.814 1.264l-.633.478-.185.146a4.213 4.213 0 0 0-.708.701z" fill="#1C76D5" fill-rule="nonzero"/>
    </g>
</svg>
