<svg width="48" height="48" viewBox="0 0 48 48" xmlns="http://www.w3.org/2000/svg">


        <path d="M42.667 37.333H23.97l15.64-15.639c.52-.52.52-1.365 0-1.886L28.191 8.391a1.333 1.333 0 0 0-1.886 0L9.179 25.517C8.42 26.277 8 27.287 8 28.363s.419 2.086 1.18 2.846l6.123 6.124h-9.97a1.333 1.333 0 0 0 0 2.667h37.334a1.333 1.333 0 0 0 0-2.667zM27.249 11.22l9.532 9.532-10.484 10.484-9.533-9.532L27.25 11.22zM10.667 28.363c0-.362.141-.703.397-.96l3.815-3.814 9.532 9.532-3.815 3.815c-.511.513-1.407.513-1.92 0l-7.612-7.613a1.347 1.347 0 0 1-.397-.96z" fill="#686868" fill-rule="nonzero"/>

</svg>
