<svg width="171" height="128" viewBox="0 0 171 128" xmlns="http://www.w3.org/2000/svg" xmlns:xlink="http://www.w3.org/1999/xlink">
    <defs>
        <linearGradient x1="27.104%" y1="28.478%" x2="75.937%" y2="73.497%" id="b9tra3fyva">
            <stop stop-color="#ECE2FF" offset="0%"/>
            <stop stop-color="#FBD2AD" stop-opacity="0" offset="100%"/>
        </linearGradient>
        <linearGradient x1="17.823%" y1="47.038%" x2="38.777%" y2="57.445%" id="ap05lwcx0b">
            <stop stop-color="#FAFAFA" stop-opacity=".883" offset="0%"/>
            <stop stop-color="#AAD5EB" stop-opacity=".196" offset="100%"/>
        </linearGradient>
        <linearGradient x1="17.823%" y1="47.399%" x2="38.777%" y2="56.538%" id="adroeypgrc">
            <stop stop-color="#FAFAFA" stop-opacity=".883" offset="0%"/>
            <stop stop-color="#AAD5EB" stop-opacity=".196" offset="100%"/>
        </linearGradient>
        <linearGradient x1="17.823%" y1="47.337%" x2="38.777%" y2="56.695%" id="232dj90f0d">
            <stop stop-color="#FAFAFA" stop-opacity=".883" offset="0%"/>
            <stop stop-color="#AAD5EB" stop-opacity=".196" offset="100%"/>
        </linearGradient>
        <linearGradient x1="17.823%" y1="47.105%" x2="38.777%" y2="57.277%" id="opcnrsztpe">
            <stop stop-color="#FAFAFA" stop-opacity=".883" offset="0%"/>
            <stop stop-color="#AAD5EB" stop-opacity=".196" offset="100%"/>
        </linearGradient>
        <linearGradient x1="17.823%" y1="47.125%" x2="38.777%" y2="57.227%" id="a6u0ld2z0f">
            <stop stop-color="#FAFAFA" stop-opacity=".883" offset="0%"/>
            <stop stop-color="#AAD5EB" stop-opacity=".196" offset="100%"/>
        </linearGradient>
        <linearGradient x1="50%" y1="109.756%" x2="50%" y2="30.073%" id="kvjcu1ag9g">
            <stop stop-color="#FFD050" offset="0%"/>
            <stop stop-color="#E88400" offset="100%"/>
        </linearGradient>
        <linearGradient x1="50%" y1="109.756%" x2="50%" y2="30.073%" id="4qjyavn4ih">
            <stop stop-color="#FFD050" offset="0%"/>
            <stop stop-color="#E88400" offset="100%"/>
        </linearGradient>
        <linearGradient x1="70.317%" y1="36.344%" x2="10.255%" y2="91.334%" id="2yk8w2nufi">
            <stop stop-color="#A3CDEF" offset="0%"/>
            <stop stop-color="#4978BB" offset="100%"/>
        </linearGradient>
        <linearGradient x1="50%" y1="109.756%" x2="50%" y2="30.073%" id="f1bsy4noij">
            <stop stop-color="#FFD050" offset="0%"/>
            <stop stop-color="#E88400" offset="100%"/>
        </linearGradient>
        <linearGradient x1="50%" y1="109.756%" x2="50%" y2="30.073%" id="xmq32afvlk">
            <stop stop-color="#FFD050" offset="0%"/>
            <stop stop-color="#E88400" offset="100%"/>
        </linearGradient>
        <linearGradient x1="50%" y1="109.756%" x2="50%" y2="30.073%" id="8ag905juil">
            <stop stop-color="#FFD050" offset="0%"/>
            <stop stop-color="#E88400" offset="100%"/>
        </linearGradient>
        <linearGradient x1="50%" y1="109.756%" x2="50%" y2="30.073%" id="wr5puvoyam">
            <stop stop-color="#FFD050" offset="0%"/>
            <stop stop-color="#E88400" offset="100%"/>
        </linearGradient>
        <linearGradient x1="10.158%" y1="69.914%" x2="89.842%" y2="69.914%" id="x2qxe7o6mn">
            <stop stop-color="#E88400" offset="0%"/>
            <stop stop-color="#FFD050" offset="100%"/>
        </linearGradient>
        <linearGradient x1="50%" y1="109.756%" x2="50%" y2="30.073%" id="2xzxk3wg9o">
            <stop stop-color="#FFD050" offset="0%"/>
            <stop stop-color="#E88400" offset="100%"/>
        </linearGradient>
        <linearGradient x1="50%" y1="109.756%" x2="50%" y2="30.073%" id="4sjosfug8p">
            <stop stop-color="#FFD050" offset="0%"/>
            <stop stop-color="#E88400" offset="100%"/>
        </linearGradient>
        <linearGradient x1="57.278%" y1="73.064%" x2="33.835%" y2="-19.834%" id="3ix1k1rikq">
            <stop stop-color="#A3B8F0" offset="0%"/>
            <stop stop-color="#F0E3FD" offset="100%"/>
        </linearGradient>
        <linearGradient x1="57.277%" y1="73.064%" x2="33.838%" y2="-19.834%" id="uzze1m96zr">
            <stop stop-color="#A3B8F0" offset="0%"/>
            <stop stop-color="#F0E3FD" offset="100%"/>
        </linearGradient>
        <linearGradient x1="100.026%" y1="49.832%" x2=".007%" y2="49.832%" id="nsm8ts9whs">
            <stop stop-color="#6DA9DC" offset="0%"/>
            <stop stop-color="#82BBE4" offset="20%"/>
            <stop stop-color="#96CDEB" offset="47%"/>
            <stop stop-color="#A3D7EF" offset="74%"/>
            <stop stop-color="#A7DBF1" offset="100%"/>
        </linearGradient>
        <linearGradient x1="49.956%" y1="100.046%" x2="49.956%" y2=".045%" id="cx8hwpch4u">
            <stop stop-color="#617CB4" offset="0%"/>
            <stop stop-color="#698DC5" offset="50%"/>
            <stop stop-color="#6F99D1" offset="100%"/>
        </linearGradient>
        <linearGradient x1="70.317%" y1="44.683%" x2="10.255%" y2="66.095%" id="uiuv4wpcgy">
            <stop stop-color="#A3CDEF" offset="0%"/>
            <stop stop-color="#4978BB" offset="100%"/>
        </linearGradient>
        <linearGradient x1="70.784%" y1="97.037%" x2="15.78%" y2="11.635%" id="vh0ss0fc6z">
            <stop stop-color="#C1262D" offset="0%"/>
            <stop stop-color="#ED6E00" offset="100%"/>
        </linearGradient>
        <linearGradient x1="84.285%" y1="49.398%" x2="-1.117%" y2="50.775%" id="1umv7mkpcA">
            <stop stop-color="#C1262D" offset="0%"/>
            <stop stop-color="#ED6E00" offset="100%"/>
        </linearGradient>
        <linearGradient x1="7.13%" y1="33.575%" x2="76.038%" y2="70.138%" id="n3to6z5haB">
            <stop stop-color="#C1262D" offset="0%"/>
            <stop stop-color="#ED6E00" offset="100%"/>
        </linearGradient>
        <linearGradient x1="57.008%" y1="97.037%" x2="38.461%" y2="11.635%" id="rhj7wus3dC">
            <stop stop-color="#C1262D" offset="0%"/>
            <stop stop-color="#ED6E00" offset="100%"/>
        </linearGradient>
        <path id="qtm10s3u0t" d="M.003.028h9.58V20.8H.003z"/>
        <path id="bb2wk2yh0w" d="M.005.025H1.57v19.113H.005z"/>
    </defs>
    <g fill="none" fill-rule="evenodd">
        <path d="M13.987 127.836H161.56s21.673-61.901-1.852-74.872c-21.03-11.595-13.33-45.95-42.916-41.98-29.587 3.97-31.398 15.59-61.156 13.164-44.242-3.605-71.431 28.325-45.6 72.437 6.526 11.144 7.04 22.445 3.95 31.25" fill="url(#b9tra3fyva)" fill-rule="nonzero"/>
        <path d="M5.3 41.055S6.191 38.4 9.038 38.4s3.629 3.532 3.629 3.532.196-.853 1.782-.877c1.586-.024 2.064 1.99 2.064 1.99s1.5-.829 2.26 1.755H1.28s.782-4.1 4.02-3.745" fill="url(#ap05lwcx0b)" fill-rule="nonzero" style="mix-blend-mode:multiply"/>
        <path d="M93.904 9.794s1.52-4.247 6.381-4.247c4.86 0 6.196 5.65 6.196 5.65s.334-1.365 3.042-1.403c2.709-.037 3.525 3.186 3.525 3.186s2.56-1.327 3.859 2.807H87.04s1.336-6.561 6.864-5.993" fill="url(#adroeypgrc)" fill-rule="nonzero" style="mix-blend-mode:multiply"/>
        <path d="M152.004 21.782s1.065-3.009 4.468-3.009c3.402 0 4.337 4.003 4.337 4.003s.234-.967 2.13-.994c1.895-.027 2.467 2.257 2.467 2.257s1.792-.94 2.7 1.988H147.2s.935-4.648 4.804-4.245" fill="url(#232dj90f0d)" fill-rule="nonzero" style="mix-blend-mode:multiply"/>
        <path d="M134.742 53.355s1.021-3.008 4.285-3.008c3.263 0 4.16 4.002 4.16 4.002s.224-.967 2.042-.994c1.819-.026 2.367 2.257 2.367 2.257s1.719-.94 2.59 1.988h-20.053s.897-4.647 4.609-4.245" fill="url(#opcnrsztpe)" fill-rule="nonzero" style="mix-blend-mode:multiply"/>
        <path d="M52.806 43.887s1.869-5.487 7.84-5.487 7.612 7.3 7.612 7.3.41-1.764 3.738-1.813c3.327-.05 4.33 4.115 4.33 4.115s3.145-1.715 4.74 3.625H44.374s1.641-8.475 8.433-7.74" fill="url(#a6u0ld2z0f)" fill-rule="nonzero" style="mix-blend-mode:multiply"/>
        <path d="M29.049 0c1.974 0 3.83.769 5.225 2.165a7.44 7.44 0 0 1 1.54 2.24 7.44 7.44 0 0 1 .625 2.986v110.153h-7.763V0zm3.51 108.109-3.137 2.279v6.41h6.27v-6.413l-3.133-2.276zm-3.137-2.279v4.096l2.819-2.048-2.82-2.048zm6.27.002-2.816 2.046 2.816 2.046v-4.092zm-3.132-5.599-3.138 2.28v2.855l3.137 2.279 3.133-2.276v-2.863l-3.132-2.275zm-3.138-2.278v4.097l2.82-2.049-2.82-2.048zm6.27.003-2.815 2.045 2.815 2.044v-4.089zm-3.132-6.484-3.138 2.281v3.739l3.137 2.278 3.133-2.276V93.75l-3.132-2.276zm-3.138-2.28v4.099l2.82-2.049-2.82-2.05zm6.27.005-2.814 2.045 2.814 2.044v-4.089zm-3.133-5.6-3.137 2.278v2.856l3.138 2.28 3.132-2.275v-2.863l-3.133-2.276zm-3.137-2.28v4.097l2.82-2.048-2.82-2.049zm6.27.005-2.815 2.044 2.815 2.046v-4.09zm-3.134-6.046-3.136 2.279v3.301l3.137 2.28 3.133-2.275v-3.308l-3.134-2.277zm-3.136-2.279v4.097l2.819-2.048-2.82-2.049zm6.27.002-2.816 2.046 2.816 2.046v-4.092zm-3.133-5.598-3.137 2.28v2.855l3.137 2.279 3.133-2.276v-2.863l-3.133-2.275zm-3.137-2.278v4.097l2.82-2.049-2.82-2.048zm6.27.002-2.815 2.046 2.815 2.044v-4.09zm-3.132-6.484-3.138 2.281v3.74l3.137 2.278 3.133-2.276v-3.747l-3.132-2.276zm-3.138-2.28v4.1l2.82-2.05-2.82-2.05zm6.27.005-2.814 2.045 2.814 2.045v-4.09zm-3.133-5.599-3.137 2.278v2.855l3.138 2.28 3.132-2.275v-2.862l-3.133-2.276zm-3.137-2.28v4.097l2.82-2.048-2.82-2.049zm6.27.005-2.815 2.044 2.815 2.046v-4.09zm-3.132-5.776-3.138 2.281v3.029l3.137 2.28 3.133-2.275v-3.039l-3.132-2.276zm-3.138-2.28v4.099l2.82-2.049-2.82-2.05zm6.27.005-2.814 2.045 2.814 2.044v-4.089zm-3.133-5.599-3.137 2.278v2.855l3.138 2.28 3.132-2.275V37.12l-3.133-2.276zm-3.137-2.28v4.097l2.82-2.048-2.82-2.049zm6.27.005-2.815 2.044 2.815 2.045v-4.089zm-6.27-15.184v14.718l3.138 2.28 3.132-2.275V17.38l-3.131-2.274-3.14 2.279zm0-4.56v4.098l2.82-2.049-2.82-2.049zm6.27.004-2.814 2.045 2.814 2.045v-4.09zm-6.27-3.322v2.857l3.137 2.28 3.133-2.276V9.505l-3.133-2.274-3.137 2.276zm0-4.556v4.096l2.82-2.048-2.82-2.048zm3.454 2.048 2.816 2.046V7.39c0-.75-.125-1.481-.362-2.172L32.876 7zM29.422.758V4.49l3.137 2.278 2.633-1.912-.131-.297a6.686 6.686 0 0 0-1.315-1.866A6.59 6.59 0 0 0 29.422.758z" fill="url(#kvjcu1ag9g)" transform="translate(4.267)"/>
        <path fill="#6D9DA4" d="m85.948 78.989-5.733-2.658v-1.025l5.733-2.657v1.263l-4.338 1.895v.023l4.338 1.895v1.264M88.02 79.453h-1.203l2.55-8.64h1.204l-2.55 8.64"/>
        <path fill="url(#4qjyavn4ih)" d="M113.59 61.971 96.688 45.07 79.786 61.97l-.343-.342 17.245-17.245 17.245 17.245-.343.342" transform="translate(4.267)"/>
        <path d="M129.752 61.727c.857 0 1.55.694 1.55 1.55v38.038a1.55 1.55 0 0 1-1.55 1.551H67.251a1.55 1.55 0 0 1-1.551-1.55V63.277a1.548 1.548 0 0 1 1.55-1.551h62.502z" fill="url(#2yk8w2nufi)" fill-rule="nonzero" transform="translate(4.267)"/>
        <path d="M132.73 64.66v35.273a.69.69 0 0 1-.69.69H73.185a.69.69 0 0 1-.689-.69V64.66c0-.38.308-.69.689-.69h58.857c.38 0 .689.31.689.69" fill="#FFF"/>
        <path d="M103.236 84.86H74.93a.163.163 0 0 1-.163-.164V66.294c0-.09.073-.162.163-.162h28.306c.09 0 .162.073.162.162v18.402c0 .09-.072.163-.162.163" fill="#E9F3FE"/>
        <path d="M94.987 44.14h3.595V28.652h-3.595V44.14zm-.56.56h4.715V28.093h-4.714V44.7z" fill="url(#f1bsy4noij)" transform="translate(4.267)"/>
        <path fill="url(#xmq32afvlk)" d="M92.865 46.748h7.84v-4.655h-7.84z" transform="translate(4.267)"/>
        <path fill="url(#8ag905juil)" d="m.453 23.135-.399-.393L29.087.122l67.664 22.472-.177.532L29.242.763.453 23.135" transform="translate(4.267)"/>
        <path d="M95.736 22.492a8.384 8.384 0 0 1 4.148 1.097 8.579 8.579 0 0 1 4.173 5.734l.058.308v.683H0V22.55h.373l95.357-.06h.006zm-79.069.796h-1.649l-2.284 3.146 2.276 3.133h1.666l2.277-3.133-2.286-3.146zm-6.678.004-2.849.002-2.281 3.14 2.276 3.133h2.863l2.275-3.132-2.284-3.143zm29.981-.018-3.268.002-2.295 3.159 2.274 3.132h3.308l2.277-3.134-2.296-3.16zm-12.912 3.478-.148.204 1.897 2.61h.296l-2.045-2.814zm15.439-.001-2.046 2.816h4.092l-2.046-2.816zm7.875 0-2.044 2.816h4.089l-2.045-2.815zM2.118 23.298H.747v6.27H2.12l2.276-3.133-2.279-3.137zm64.888 3.455-2.045 2.815h4.089l-2.044-2.815zm-10.41-3.488-3.692.002-2.301 3.169 2.275 3.132h3.747l2.275-3.132-2.304-3.171zm-29.917 4.01-1.665 2.293h3.331l-1.666-2.293zm32.452-.521-2.044 2.814h4.089l-2.045-2.814zm5.338-3.495-2.8.002-2.307 3.175 2.275 3.132H64.5l2.276-3.132-2.307-3.177zm-30.293 3.494-2.045 2.815h4.089l-2.044-2.815zm13.665-3.483-2.816.002-2.297 3.162 2.276 3.134h2.863l2.274-3.132-2.3-3.166zm-24.061.015h-2.078l-2.288 3.15 2.276 3.133h2.105l2.275-3.132-2.29-3.151zm51.276 3.468-2.044 2.815h4.089l-2.045-2.815zm7.875 0-2.045 2.815h4.089l-2.044-2.815zm-10.418-3.5-2.967.003-2.309 3.179 2.275 3.133h3.038l2.275-3.132-2.312-3.182zm-60.01 3.5-2.044 2.815h4.089l-2.045-2.815zm75.625 2.815h4.089l-2.045-2.813-2.044 2.813zm7.873 0h4.09l-2.045-2.815-2.045 2.815zm-76.817-2.816-2.046 2.816h4.091l-2.045-2.816zm12.469-3.472H29.58l-2.291 3.156 2.276 3.132h2.104l2.276-3.133-2.292-3.155zm55.968-.035H85.48l-2.318 3.19 2.275 3.133h2.228l2.277-3.13-2.321-3.193zm-7.234.004-2.786.002-2.315 3.185 2.276 3.132h2.863l2.275-3.133-2.313-3.186zM26.3 26.752l-2.044 2.815h.297l1.895-2.611-.148-.204zM4.628 26.75l-2.046 2.816h4.092L4.628 26.75zm95.137-2.364-1.487 2.048 2.274 3.132h2.792a7.843 7.843 0 0 0-3.345-5.03l-.234-.15zm-4.272-1.15-2.767.003h-.001l-2.322 3.196 2.275 3.131h2.862l2.277-3.132-2.324-3.197zm-3.23.003-4.182.004 2.09 2.875 2.092-2.88zm-67.725.043h-.297l2.06 2.835.148-.204-1.911-2.631zm36.669-.022-4.149.002 2.073 2.855 2.076-2.857zm-39.966.024-4.113.003 2.055 2.829 2.058-2.832zm7.877-.005h-.295l-1.913 2.633.148.204 2.06-2.837zm-14.561.009-4.107.003 2.053 2.825 2.054-2.828zm21.683-.013-4.126.002 2.062 2.839 2.064-2.841zm16.202-.01-4.14.003 2.07 2.848 2.07-2.851zm16.643-.01-4.155.002 2.076 2.859 2.079-2.861zm8.055-.006-4.165.003 2.081 2.864 2.084-2.867zm20.906 2.867 1.396-1.92a7.634 7.634 0 0 0-3.484-.955l2.088 2.875zM6.678 23.294l-4.098.003 2.048 2.819 2.05-2.822zm37.886-.023-4.132.003 2.065 2.842 2.067-2.845zm40.453-.025-4.169.002 2.083 2.868 2.086-2.87zm-56.654.035-3.364.002 1.681 2.314 1.683-2.316z" fill="url(#wr5puvoyam)" transform="translate(4.267)"/>
        <path d="M40.925 32.538h-16.66V17.593h7.025c5.32 0 9.635 4.312 9.635 9.633v5.312z" fill="url(#x2qxe7o6mn)" transform="translate(4.267)"/>
        <path d="M100.95 26.658a4.165 4.165 0 1 1-8.33 0 4.165 4.165 0 0 1 8.33 0" fill="url(#2xzxk3wg9o)" transform="translate(4.267)"/>
        <path d="M103.257 26.658a2.205 2.205 0 1 1-4.41 0 2.205 2.205 0 0 1 4.41 0" fill="#F5BA3F"/>
        <path fill="#ED954F" d="M46.75 126.393H27.1l3.408-13.132h12.23l4.011 13.132"/>
        <path fill="url(#4sjosfug8p)" d="M42.482 126.393H27.243l3.408-13.132h7.82l4.011 13.132" transform="translate(4.267)"/>
        <path d="M129.304 70.093h-23.18a.205.205 0 0 1-.205-.205v-2.291c0-.113.092-.205.205-.205h23.18c.113 0 .205.092.205.205v2.291a.205.205 0 0 1-.205.205M129.304 83.238h-23.18a.205.205 0 0 1-.205-.205v-2.29c0-.114.092-.206.205-.206h23.18c.113 0 .205.092.205.205v2.291a.205.205 0 0 1-.205.205M129.304 89.9H74.972a.205.205 0 0 1-.205-.204v-2.291c0-.113.092-.205.205-.205h54.332c.113 0 .205.092.205.205v2.29a.205.205 0 0 1-.205.206M105.174 94.223H74.972a.205.205 0 0 1-.205-.205v-2.291c0-.114.092-.205.205-.205h30.202c.114 0 .205.091.205.205v2.29a.205.205 0 0 1-.205.206M129.304 94.223h-21.919a.205.205 0 0 1-.205-.205v-2.291c0-.114.092-.205.205-.205h21.919c.113 0 .205.091.205.205v2.29a.205.205 0 0 1-.205.206M88.788 98.544H74.792a.205.205 0 0 1-.205-.204v-2.292c0-.113.092-.205.205-.205h13.996c.113 0 .205.092.205.205v2.292a.205.205 0 0 1-.205.204M113.457 98.544H90.278a.205.205 0 0 1-.205-.204v-2.292c0-.113.092-.205.205-.205h23.18c.113 0 .204.092.204.205v2.292a.205.205 0 0 1-.205.204M129.304 98.544h-13.996a.205.205 0 0 1-.205-.204v-2.292c0-.113.092-.205.205-.205h13.996c.113 0 .205.092.205.205v2.292a.205.205 0 0 1-.205.204M115.978 74.415h-9.854a.205.205 0 0 1-.205-.205v-2.291c0-.113.092-.205.205-.205h9.854c.114 0 .205.092.205.205v2.291a.205.205 0 0 1-.205.205M122.461 78.917h-16.337a.205.205 0 0 1-.205-.205V76.42c0-.113.092-.205.205-.205h16.337c.113 0 .205.092.205.205v2.292a.205.205 0 0 1-.205.205M129.304 78.917h-4.812a.205.205 0 0 1-.205-.205V76.42c0-.113.091-.205.205-.205h4.812c.113 0 .205.092.205.205v2.292a.205.205 0 0 1-.205.205M129.304 74.415h-11.295a.205.205 0 0 1-.205-.205v-2.291c0-.113.092-.205.205-.205h11.295c.113 0 .205.092.205.205v2.291a.205.205 0 0 1-.205.205" fill="#E9F3FE"/>
        <path d="M4.847 14.231c-.948-.052-2.016-.615-2.317-1.484-.286-.824.346-1.264 0-2.03-.365-.81-1.189-.585-1.562-1.38-.399-.85.375-1.453-.078-2.344-.314-.616-.832-.62-.886-1.12-.059-.554.503-1.255.964-1.223.659.045.519 1.549 1.666 2.213.883.51 1.487-.078 2.083.469.672.615.086 1.528.86 2.5.428.538.705.378 1.197.989.146.18.896 1.111.625 2.03-.288.98-1.584 1.434-2.552 1.38" fill="url(#3ix1k1rikq)" fill-rule="nonzero" transform="translate(11.947 110.933)"/>
        <path d="M19.064 125.648c-.07-.125-.142-.251-.216-.376l-.01.006.01-.006a43.43 43.43 0 0 0-1.42-2.253 62.26 62.26 0 0 0-2.957-4.016.011.011 0 0 0-.015-.002.011.011 0 0 0-.002.016l.017.021a62.596 62.596 0 0 1 2.938 3.994 43.412 43.412 0 0 1 1.42 2.252c.074.124.145.25.215.375.003.006.01.008.016.005a.011.011 0 0 0 .004-.016" fill="#FFF"/>
        <path d="M15.25 6.086c-.053.5-.572.505-.885 1.12-.453.89.32 1.495-.078 2.344-.374.796-1.197.57-1.563 1.38-.345.766.287 1.206 0 2.03-.3.869-1.368 1.432-2.316 1.484a3.216 3.216 0 0 1-1.776-.436c-.368-.226-.657-.54-.776-.943-.27-.92.479-1.85.625-2.031.384-.477.637-.483.934-.722.084-.065.17-.15.263-.267.773-.972.188-1.885.86-2.5.595-.546 1.2.042 2.082-.468 1.148-.665 1.008-2.17 1.667-2.214.46-.031 1.022.67.963 1.223" fill="url(#uzze1m96zr)" fill-rule="nonzero" transform="translate(11.947 110.933)"/>
        <path d="M20.63 124.973a45.778 45.778 0 0 1 1.508-2.31 64.297 64.297 0 0 1 2.502-3.365l.054-.067a.011.011 0 0 0-.001-.016.012.012 0 0 0-.016.001s-1.212 1.49-2.558 3.434a46.132 46.132 0 0 0-1.464 2.239l.01.006-.01-.006c-.016.024-.03.048-.045.073a.011.011 0 0 0 .004.015.011.011 0 0 0 .016-.004" fill="#FFF"/>
        <path d="M22.878 121.707c.012 1.102-.8 2.254-1.767 2.854a4.533 4.533 0 0 1-.16.093c-.038.022-.076.042-.114.062-.584.298-1.307.488-1.988.466a2.754 2.754 0 0 1-.303-.023 2.25 2.25 0 0 1-1.042-.396 1.909 1.909 0 0 1-.212-.183c-.7-.697-.681-1.795-.616-2.386.02-.164.042-.29.054-.355.18-1.016.603-1.005.757-1.9l.021-.142c.184-1.51-.985-2.187-.608-3.287.342-1.008 1.412-.71 2.108-1.857.906-1.493-.207-3.142.526-3.611.512-.328 1.604.127 1.886.805.254.61-.342.944-.315 1.853.04 1.314 1.315 1.523 1.391 2.755.073 1.155-1.02 1.416-.932 2.58.028.35.147.6.305.815.337.462.85.758.98 1.531.018.108.027.217.029.326" fill="#7F96D4" fill-rule="nonzero"/>
        <path d="M18.841 125.654a48.217 48.217 0 0 1 .103-1.89c.05-.69.111-1.37.178-2.025a84.886 84.886 0 0 1 .78-5.64l.022-.118a.011.011 0 0 0-.01-.013.011.011 0 0 0-.013.01s-.474 2.58-.801 5.758a66.147 66.147 0 0 0-.179 2.027 48.278 48.278 0 0 0-.102 1.89c0 .007.004.012.01.012a.011.011 0 0 0 .012-.01" fill="#FFF"/>
        <path d="M12.59 126.459c.214-2.399 1.038-3.152 1.822-3.352 1.894-.484 4.408 2.042 6.683 1.355.902-.272 1.046-.832 2.126-.927 1.325-.116 2.392.615 2.531.713 1.223.862 1.042 2.047 1.013 2.21H12.59" fill="#7F96D4" fill-rule="nonzero"/>
        <path d="M17.6 15.667s-2.931-3.519-6.187-2.67c-3.256.85-2.947 3.226-2.947 3.226s-.85-3.48-3.088-3.735c-2.239-.255-3.074 5.687-3.074 5.687s-.632-2.037-1.79 0c-1.157 2.037 0 3.905 0 3.905h14.421l2.665-6.413z" fill="url(#nsm8ts9whs)" fill-rule="nonzero" transform="matrix(-1 0 0 1 64.427 105.387)"/>
        <g transform="matrix(-1 0 0 1 51.627 105.387)">
            <mask id="maey0cmlev" fill="#fff">
                <use xlink:href="#qtm10s3u0t"/>
            </mask>
            <path d="M6.174 20.8s4.001-2.85 3.334-4.873c-.666-2.022-3-.505-2.048-3.171.953-2.667 2.191-2.942 1.239-3.586-.953-.644-1.43-1.241-1.096-3.448.334-2.206-.547-2.252-1.31-2.965C5.532 2.045 5.509-.39 3.65.091 1.793.574 2.817 2.367 2.436 3.31c-.381.942-1.31.575-1.143 1.816.166 1.24 1.08 1.678-.02 3.378-1.1 1.701-1.004 2.965-.29 4.207.714 1.24-.405 2.022-.881 3.585-.476 1.563.929 3.93.81 4.505h5.262z" fill="url(#cx8hwpch4u)" fill-rule="nonzero" mask="url(#maey0cmlev)"/>
        </g>
        <g transform="matrix(-1 0 0 1 48.427 106.987)">
            <mask id="27fx9vbydx" fill="#fff">
                <use xlink:href="#bb2wk2yh0w"/>
            </mask>
            <path d="m.765.074.356-.049C2.249 8.343.966 16.184.371 19.138H.005C.59 16.268 1.895 8.413.765.074" fill="#FFF" mask="url(#27fx9vbydx)"/>
        </g>
        <path d="M38.819 21.76H10.88c.13-7.636 2.03-2.744 2.03-2.744s.623-5.578 1.928-5.801c1.305-.224 1.914 5.473 1.914 5.473s1.45-8.128 3.291-8.441c1.638-.269.348 7.531.348 7.531a4.274 4.274 0 0 1 2.349-.865c.91 0 1.718.601 2 1.491 0 0 1.45-3.131 2.77-2.982 1.58 0 .913 3.25.913 3.25s3.973-2.982 5.19-2.877c1.712.119-.202 4.474-.202 4.474a9.034 9.034 0 0 1 4.625-1.208c2.9-.21 2.9 1.208.783 2.699z" fill="url(#uiuv4wpcgy)" fill-rule="nonzero" transform="translate(13.227 105.387)"/>
        <path fill="#D3D3D3" fill-rule="nonzero" d="m148.948 76.951-15.467-.8-.4 2.533 15.2 3.334.667-5.067"/>
        <path d="M158.814 125.776c-.063.356-3.76 1.137-5.88.875-.135-.075-.274-.33-.349-.656-.194-.866.059-2.244 1.972-2.135l.043.001.263-.185h.001l.285-.2.04-.028.458-.32-.287-1.575-.124-.674-.06-.339-.001-.005-.062-.332-.1-.562 2.825-.421s.028.398.07.944c.072.943.184 2.319.259 2.82.079.527.367 1.432.532 2.084.083.327.135.59.115.708" fill="#5986AA"/>
        <path d="M155.212 120.535h-.037l-.05-.268.087.002c.867 0 1.133-.592 1.133-.592s.716.257 1.26.257c.102 0 .199-.009.283-.031l.02.26c-.09.027-.193.038-.305.038-.543 0-1.258-.257-1.258-.257s-.267.59-1.133.59" fill="#176C7A"/>
        <path d="M150.335 119.832s-.078.287-.188.703c-.242.904-.64 2.421-.742 2.96-.1.522-.125 1.473-.184 2.142-.029.336-.066.602-.125.707-.176.315-3.924-.165-5.837-1.112-.106-.115-.153-.4-.115-.735.1-.868.773-2.061 2.485-1.397l.082.032.038.016.254-.072.054-.016h.002l.058-.017.278-.079.048-.013.012-.004.164-.046.336-.094.024-.007.408-2.599.017-.106.036-.233.088-.564 2.807.534" fill="#5986AA"/>
        <path d="M149.782 120.556c-.876 0-.536-.466-1.475-.472h-.013c-.138 0-.264.007-.379.014-.114.007-.217.014-.31.014a.984.984 0 0 1-.201-.017l.036-.233.01-.06a.74.74 0 0 0 .285.044c.091 0 .194-.007.308-.015.114-.007.24-.014.377-.014h.02c.94.006.6.472 1.474.472.087 0 .187-.005.302-.015-.02.079-.044.166-.07.26a3.61 3.61 0 0 1-.364.022" fill="#176C7A"/>
        <path d="M156.25 97.533s-.762 3.881-1.757 8.437c-.49 2.251-1.04 4.666-1.58 6.858a108.937 108.937 0 0 1-.92 3.5c-.656 2.305-1.24 3.884-1.62 3.93-1.457.174-.858-.434-1.933-.44-.145-.002-.278.006-.397.013-.764.048-1.013.096-.916-2.005.098-2.13.817-20.1 1.028-25.392l.058-1.461 1.296-.922 1.055-.749 5.22.764.006.001.46 7.466" fill="#1A3F92"/>
        <path d="M151.992 116.328" fill="#4C5054"/>
        <path d="m151.992 116.328-1.983-23.661.011-.001c.985 4.772 1.403 11.15 2.65 18.723.084.508.163.988.242 1.439a108.937 108.937 0 0 1-.92 3.5" fill="#29337D"/>
        <path d="M158.327 104.804c-.294 5.406-.239 13.725-.128 14.652.112.927-1.854.221-1.854.221s-.358.796-1.597.542c0 0-.539.112-1.836-7.391-.079-.45-.158-.931-.243-1.439-1.246-7.573-1.664-13.951-2.649-18.723-.18-.87-.379-1.687-.605-2.448 0 0 .028-.067.094-.167.263-.393 1.132-1.299 3.343-.706 1.101.294 2.113.537 2.932.721l.006.001c1.238.28 2.034.428 2.034.428s.092 1.027.202 2.594c.213 3.048.494 8.144.3 11.715" fill="#284C9B"/>
        <path d="M149.684 92.68a5.186 5.186 0 0 1-1.53-.246l.033-.79a5.183 5.183 0 0 0 1.661.232c.053.229.104.462.153.699l.008.092c-.11.009-.218.013-.325.013" fill="#29337D"/>
        <path d="M155.597 93.413c.259-.253.548-.536.851-.836a7.926 7.926 0 0 0 1.521-.272l.057.784c-.398.12-1.09.28-2.031.316-.128.005-.261.008-.398.008m-2.673-.314a14.207 14.207 0 0 1-1.443-.414l-.466-.734-.333.6c-.223.06-.445.096-.662.115l-.019-.091c-.05-.237-.1-.47-.153-.699.27-.01.552-.048.834-.125l.094-.47.172-.863.533 1.467a14.38 14.38 0 0 0 1.664.462l-.397.471c.057.098.116.192.176.281" fill="#29337D"/>
        <path d="m155.482 76.951-2.4-.667s-1.6.934-2.134 2.534c-.533 1.6.859 4.086.859 4.086s3.408-.486 3.675-5.953" fill="#D3D3D3" fill-rule="nonzero"/>
        <path d="M155.482 76.951s-.534.934-2.267.667c-.604-.122-.662-.679-.27-1.18.04-.052.086-.103.136-.154l.134-1.066 2-.534.07.595.197 1.672" fill="#FFD19D"/>
        <path d="M153.155 76.447c-.075 0-.145-.004-.209-.01l.135-.153.064-.512c.732-.08 1.514-.31 2.136-.531l.004.038-.004.005c-.728.973-1.574 1.163-2.126 1.163" fill="#C98377"/>
        <path d="m157.281 72.218-.8 2.533s-.44.21-1.077.445c-1.039.38-2.596.819-3.59.488-1.21-.404-.97-2.79-.782-3.93.06-.366.116-.603.116-.603l4.267-.4 1.866 1.467" fill="#FFD19D"/>
        <path d="m156.482 74.751.094-.3a.536.536 0 0 1 .143-.03c.18 0-.237.33-.237.33" fill="#CED9D5"/>
        <path d="M156.482 74.484c.544-.83-1.127-1.333-1.6-1.333-.534 0-.467-1.133-.467-1.133s-.593.177-1.422.177a5.25 5.25 0 0 1-1.378-.177c-.267-.074-.455-.163-.583-.263.06-.367.116-.604.116-.604l4.267-.4 1.866 1.467-.705 2.234a2.05 2.05 0 0 0-.094.032" fill="#F0B0A3"/>
        <path d="M151.215 70.418s-.934.933.533 1.333c1.467.4 2.8 0 2.8 0s-.133 1.467.4 1.467c.534 0 1.305 1.12.32 2.027 0 0 .614.773 1.547.373.933-.4 1.733-1.067 1.6-2.8 0 0-2.134-4.4-7.2-2.4" fill="#5D514F" fill-rule="nonzero"/>
        <path d="M158.922 72.494a3.31 3.31 0 0 1-.307.39s-2.6-4.2-7.734-2.933c-.004-.155.004-.31.027-.467.304-2.21 3.119-4.503 6.107-3.133 2.96 1.356 3.068 4.424 1.907 6.143" fill="#329EBF"/>
        <path d="M158.922 72.494a3.31 3.31 0 0 1-.307.39s-2.6-4.2-7.734-2.933c-.004-.155.004-.31.027-.467 1.942-.445 3.745-.336 5.219.318 1.261.56 2.243 1.508 2.795 2.692" fill="#258399"/>
        <path d="m152.3 70.018-1.66.011-.002-.014c-.03-.18-.29-1.965.796-2.147l.057-.008c.939-.104 1.214.944.81 2.158" fill="#258399"/>
        <path d="m151.896 70.005-1.258.01c-.03-.18-.29-1.965.796-2.147.653.165.811 1.09.462 2.137" fill="#329EBF"/>
        <path d="M156.281 73.618a.8.8 0 1 1-1.6 0 .8.8 0 0 1 1.6 0" fill="#FFD19D"/>
        <path d="M158.343 90.673c.072.498.11.983.072 1.478 0 0-.704.318-1.967.426-.857.074-1.973.053-3.303-.23a14.053 14.053 0 0 1-1.664-.462l-.533-1.467-.172.863-.094.47c-1.467.4-2.934-.266-2.934-.266s.267-1.334.533-4.4c.135-1.55.066-2.623-.036-3.528-.073-.648-.162-1.211-.205-1.8a9.033 9.033 0 0 1-.025-.672c0-1.734.933-4.134.933-4.134l4.133-.667c-2.533 2.8-1.066 4.8-1.066 4.8s1.733.134 3.467-4.133c0 0 2.666 1.467 2.933 1.6.019.01.032.04.041.092.138.715-.45 5.279-.575 7.642-.094 1.809.286 3.142.462 4.388" fill="#EE781C"/>
        <path d="M154.42 94.551s-.823-.45-1.496-1.452c1.01.232 1.901.314 2.657.314h.016c-.693.676-1.177 1.138-1.177 1.138" fill="#29337D"/>
        <path d="M155.581 93.413c-.756 0-1.648-.082-2.657-.314a4.908 4.908 0 0 1-.176-.28l.397-.472c.921.196 1.74.267 2.44.267.312 0 .6-.014.863-.037-.303.3-.592.583-.851.836h-.016" fill="#29337D"/>
        <path d="M155.585 92.614c-.7 0-1.519-.07-2.44-.267l3.603-4.262.317-6.334s.16-1.907 1.391-3.108c.014.074.02.19.02.339 0 1.297-.483 5.185-.595 7.303-.01.198-.015.39-.014.577 0 1.523.32 2.701.476 3.81a129.39 129.39 0 0 1-1.895 1.905 9.953 9.953 0 0 1-.863.037" fill="#EC6D0E"/>
        <path d="M133.481 76.418s-1.267-.4-1.95-.534c-.682-.133-1.267-.4-1.852 0-.585.4.975.534.975.534s-.39 1.467.682 1.467c1.073 0 1.907.195 1.907.195l.238-1.662M153.615 92.951s-1.734 1.067-1.867 1.867 0 1.867.933 1.867c.934 0 .934-1.467.934-1.467l.933-.933-.933-1.334" fill="#FFD19D"/>
        <path d="M158.415 78.551s.8.267 1.467 3.867c.666 3.6.666 5.467.533 6.133-.133.667-5.734 6.267-5.734 6.267s-.933-.533-1.6-1.733l4.134-4.8v-6.267s0-2.267 1.2-3.467" fill="#D3D3D3" fill-rule="nonzero"/>
        <path d="M158.548 73.618a.4.4 0 0 1-.373-.255c-.743-1.911-3.093-3.797-7.27-2.822a.4.4 0 0 1-.181-.78c1.96-.457 3.783-.351 5.27.308 1.37.607 2.41 1.674 2.927 3.004a.4.4 0 0 1-.373.545" fill="#329EBF"/>
        <path d="M149.684 91.88a5.194 5.194 0 0 1-1.936-.395s.267-1.334.533-4.4c.054-.612.075-1.149.075-1.63 0-.74-.05-1.35-.11-1.898-.074-.648-.163-1.211-.206-1.8.305.886.801 2.606.708 4.194-.133 2.267-.533 5.334-.533 5.334s.845.114 1.6.114c.385 0 .746-.03.961-.118l-.094.47a3.729 3.729 0 0 1-.998.128" fill="#EC6D0E"/>
        <g>
            <path d="M12.185 12.629H.902l1.725-4.184v-.002l.695-1.688.19-.463.313-.753.063-.153.694-1.689.128-.307L5.94.404a.653.653 0 0 1 1.206 0l1.23 2.986.128.307.694 1.689.064.153.312.753.19.463.695 1.688v.002l1.726 4.184z" fill="url(#vh0ss0fc6z)" transform="translate(60.16 113.067)"/>
            <path fill="url(#1umv7mkpcA)" d="M0 13.383h12.923v-1.827H0z" transform="translate(60.16 113.067)"/>
            <path fill="url(#n3to6z5haB)" d="M10.131 13.383h2.792v-1.827h-2.792z" transform="translate(60.16 113.067)"/>
            <path d="M11.74 11.556h-1.595l-1.282-3.11v-.002l-.695-1.688-.19-.463-.312-.753-.064-.154-.694-1.688-.128-.307L5.746.877 5.94.405a.653.653 0 0 1 1.206 0l1.23 2.986.128.307.694 1.688.064.154.312.753.19.463.695 1.688v.002l1.282 3.11z" fill="url(#rhj7wus3dC)" transform="translate(60.16 113.067)"/>
            <path fill="#F9EFD4" d="M69.358 118.452h-5.31l.694-1.688h3.922zM70.619 121.51v.002h-7.832v-.002l.695-1.688h6.443z"/>
            <path fill="#E0D7BF" d="M69.358 118.452h-1.596l-.694-1.688h1.596zM70.619 121.51v.002h-1.596v-.002l-.694-1.688h1.596z"/>
        </g>
        <g>
            <path d="M12.185 12.629H.902l1.725-4.184v-.002l.695-1.688.19-.463.313-.753.063-.153.694-1.689.128-.307L5.94.404a.653.653 0 0 1 1.206 0l1.23 2.986.128.307.694 1.689.064.153.312.753.19.463.695 1.688v.002l1.726 4.184z" fill="url(#vh0ss0fc6z)" transform="translate(2.56 113.067)"/>
            <path fill="url(#1umv7mkpcA)" d="M0 13.383h12.923v-1.827H0z" transform="translate(2.56 113.067)"/>
            <path fill="url(#n3to6z5haB)" d="M10.131 13.383h2.792v-1.827h-2.792z" transform="translate(2.56 113.067)"/>
            <path d="M11.74 11.556h-1.595l-1.282-3.11v-.002l-.695-1.688-.19-.463-.312-.753-.064-.154-.694-1.688-.128-.307L5.746.877 5.94.405a.653.653 0 0 1 1.206 0l1.23 2.986.128.307.694 1.688.064.154.312.753.19.463.695 1.688v.002l1.282 3.11z" fill="url(#rhj7wus3dC)" transform="translate(2.56 113.067)"/>
            <path fill="#F9EFD4" d="M11.758 118.452h-5.31l.694-1.688h3.922zM13.019 121.51v.002H5.187v-.002l.695-1.688h6.443z"/>
            <path fill="#E0D7BF" d="M11.758 118.452h-1.596l-.694-1.688h1.596zM13.019 121.51v.002h-1.596v-.002l-.694-1.688h1.596z"/>
        </g>
        <path fill="#2C8BA8" d="M1.918 123.807H.198l.003-.046v-.002l.006.047h1.71v.001"/>
        <path d="M170.667 127.148a.93.93 0 0 1-.215.603.685.685 0 0 1-.519.249H.733c-.405 0-.733-.382-.733-.852 0-.237.081-.45.214-.605a.688.688 0 0 1 .52-.25h169.199c.405 0 .734.382.734.855" fill="#BCCCE2" fill-rule="nonzero"/>
    </g>
</svg>
