<svg width="78" height="75" viewBox="0 0 78 75" xmlns="http://www.w3.org/2000/svg">
    <path d="M64.077 55.426c.471 0 .853.367.853.82 0 2.396 2.043 4.346 4.553 4.346.471 0 .853.367.853.82 0 .452-.382.819-.853.819-2.51 0-4.553 1.956-4.553 4.36 0 .452-.382.82-.853.82-.47 0-.852-.368-.852-.82 0-2.404-2.043-4.36-4.553-4.36-.471 0-.853-.367-.853-.82 0-.452.382-.82.853-.82 2.51 0 4.553-1.949 4.553-4.345 0-.453.382-.82.852-.82zM39.045 31.458c.45 0 .902.19 1.224.51l9.215 9.098a1.698 1.698 0 0 1 0 2.431 1.735 1.735 0 0 1-2.449 0l-6.25-6.172v25.371c0 .954-.774 1.718-1.74 1.718-.967 0-1.74-.764-1.74-1.718V37.325l-6.25 6.172c-.336.344-.787.51-1.225.51-.438 0-.89-.179-1.225-.51a1.698 1.698 0 0 1 0-2.43l9.215-9.1c.323-.33.774-.509 1.225-.509zm1.783-22.16c4.522 0 8.864 1.687 12.204 4.753a18.097 18.097 0 0 1 5.64 10.37c6.73 1.778 11.65 8.206 11.664 15.432 0 3.993-1.478 7.832-4.188 10.82-2.724 3.015-6.385 4.818-10.303 5.102h-9.66a1.73 1.73 0 0 1-1.734-1.74c0-.965.77-1.738 1.734-1.738h9.468c6.191-.477 11.214-6.042 11.214-12.444 0-6.041-4.316-11.336-10.033-12.315a1.735 1.735 0 0 1-1.438-1.545A14.566 14.566 0 0 0 40.84 12.75c-5.64 0-10.829 3.298-13.231 8.412a1.74 1.74 0 0 1-2.171.889 6.31 6.31 0 0 0-2.197-.387c-3.545 0-6.435 2.899-6.435 6.454 0 .786.128 1.52.385 2.216a1.756 1.756 0 0 1-.758 2.112 10.33 10.33 0 0 0-5.1 8.888c0 5.643 4.42 10.654 9.673 10.976h10.996a1.73 1.73 0 0 1 1.734 1.739 1.73 1.73 0 0 1-1.734 1.739h-11.15c-3.494-.194-6.77-1.855-9.25-4.663-2.414-2.744-3.737-6.21-3.737-9.778 0-4.418 2.145-8.566 5.678-11.142a10.886 10.886 0 0 1-.206-2.061c0-5.475 4.445-9.932 9.904-9.932.643 0 1.285.064 1.902.18a18.044 18.044 0 0 1 5.87-6.196 18.003 18.003 0 0 1 9.814-2.898zm-28.157 0c.362 0 .655.285.655.636 0 1.86 1.568 3.372 3.496 3.372.361 0 .655.285.655.636a.645.645 0 0 1-.655.636c-1.928 0-3.496 1.517-3.496 3.382a.646.646 0 0 1-.655.636.646.646 0 0 1-.654-.636c0-1.865-1.569-3.382-3.497-3.382a.645.645 0 0 1-.654-.636c0-.351.293-.636.654-.636 1.928 0 3.497-1.513 3.497-3.372 0-.351.293-.636.654-.636zm8.41-4.649a.6.6 0 0 1 .607.59c0 1.27 1.072 2.302 2.389 2.302a.6.6 0 0 1 .608.591.6.6 0 0 1-.608.59c-1.317 0-2.389 1.036-2.389 2.31a.6.6 0 0 1-.607.59.6.6 0 0 1-.608-.59c0-1.27-1.072-2.302-2.389-2.302a.6.6 0 0 1-.607-.59.6.6 0 0 1 .607-.591c1.317 0 2.389-1.036 2.389-2.31a.6.6 0 0 1 .608-.59z" fill="#1C76D5" fill-rule="nonzero"/>
</svg>
