<svg width="24" height="24" viewBox="0 0 24 24" xmlns="http://www.w3.org/2000/svg">
    <g fill="none" fill-rule="evenodd">
        <path fill="none" d="M0 0h24v24H0z"/>
        <g fill="#1C76D5" fill-rule="nonzero">
            <path d="M18.352 5.922h-3.176l-.756-1.52A.725.725 0 0 0 13.77 4h-3.463a.725.725 0 0 0-.65.403l-.756 1.52H5.725a.725.725 0 1 0 0 1.45h.594v10.27A2.358 2.358 0 0 0 8.676 20h6.725a2.358 2.358 0 0 0 2.358-2.358V7.373h.593a.725.725 0 0 0 0-1.45zm-7.595-.471h2.564l.236.471H10.52l.236-.471zm5.551 12.191c0 .501-.406.907-.907.907H8.676a.907.907 0 0 1-.907-.907V7.373h8.54v10.27z"/>
            <path d="M12.039 17.896c.4 0 .725-.325.725-.725v-8.4a.725.725 0 1 0-1.45 0v8.398a.725.725 0 0 0 .725.727zM14.355 17.896a.725.725 0 0 0 .725-.725v-8.4a.725.725 0 1 0-1.45 0v8.398a.725.725 0 0 0 .725.727zM9.723 17.896c.4 0 .725-.325.725-.725v-8.4a.725.725 0 0 0-1.45 0v8.398a.725.725 0 0 0 .725.727z"/>
        </g>
    </g>
</svg>
