<svg width="24" height="24" viewBox="0 0 24 24" xmlns="http://www.w3.org/2000/svg">
    <g fill="#686868" fill-rule="evenodd">
        <path d="M9.9 19.246c-.016-.402-.536-.955-1.27-1.43-.754-.49-1.702-.847-2.579-.855l-.15-1.285c1.632-.4 3.43-.879 3.703-1.24.008-.01-1.154-.093-4.66-.43l-.299-.029-.172-.242c-.254-.358-.196-.66.156-.914.092-.065.274-.14.546-.251.873-.357 2.992-1.223 3.015-1.608.008-.126-.737-.265-2.985-.402-.315-.02-.59-.028-.855-.036-1.122-.036-2.091-.067-2.555-.645-.69-.86-.402-1.525.315-2.1.4-.32.929-.579 1.451-.834.665-.324 1.316-.642 1.293-.699l1.205-.5c.499 1.191-.7 1.776-1.926 2.374-.462.225-.93.453-1.206.675-.118.095-.18.186-.116.267.09.112.78.134 1.58.16.301.009.615.019.89.036 3.227.197 4.265.91 4.212 1.78-.045.739-1.066 1.434-2.1 1.964 3.26.537 3.921 1.339 3.253 2.22-.298.394-1.098.751-2.074 1.07.27.13.528.274.768.43 1.067.692 1.83 1.639 1.862 2.478l-1.303.046"/>
        <path d="m21.483 8.472-1.085-.942a.392.392 0 0 0-.09-.061l-.009-.004-.978 1.133V8.6l-6.55 7.518-.242 1.56 1.374-.466 6.586-7.596.994-1.144zm-.232-1.928L22.468 7.6c.108.094.196.194.263.304a1 1 0 0 1 .145.455 1.07 1.07 0 0 1-.094.507 1.527 1.527 0 0 1-.25.385l-1.057 1.217-6.62 7.635-.003.003c-.035.04-.097.102-.164.155a.909.909 0 0 1-.26.151h-.003l-1.95.661-.007.003a1.145 1.145 0 0 1-.255.05.972.972 0 0 1-.704-.232l-.005-.005a1.075 1.075 0 0 1-.236-.292.965.965 0 0 1-.114-.56v-.002c.005-.047.013-.093.023-.137l.312-2.012h-.002c.01-.069.025-.136.043-.201v-.003a.805.805 0 0 1 .163-.315v-.003l6.642-7.623.002.002 1.048-1.215a1.122 1.122 0 0 1 .766-.381 1.2 1.2 0 0 1 .236.007c.164.018.32.06.467.129.14.064.271.15.397.26z"/>
        <path d="m19.39 7.522 2.154 1.871-.853.986-2.154-1.871.853-.986M13.484 15.116l2.154 1.871-.853.986-2.154-1.872.853-.985"/>
    </g>
</svg>
