<svg width="24" height="24" viewBox="0 0 24 24" xmlns="http://www.w3.org/2000/svg">
    <path d="m3.981 20.988 5.239-.864L20.305 8.966c.926-.925.935-2.421-.022-3.378L18.39 3.696a2.372 2.372 0 0 0-3.356 0L3.876 14.78l-.864 5.239a.844.844 0 0 0 .97.97zM17.52 9.576 14.424 6.48l1.7-1.689.002-.001.001-.002a.825.825 0 0 1 1.169 0l1.893 1.893c.347.347.35.863.022 1.19l-.002.002-.001.002-1.689 1.7zm-7.136 7.183v-1.454H8.695v-1.688H7.241l5.986-5.947 1.004 1.005-4.184 4.184a.774.774 0 0 0 1.094 1.094l4.184-4.184 1.005 1.004-5.947 5.986zm-4.496 2.347-.993-.993.427-2.587.646-.643H7.43v1.687h1.687v1.462l-.643.647-2.587.427z" fill="#FFF" fill-rule="nonzero"/>
</svg>
