<svg width="16" height="16" viewBox="0 0 16 16" xmlns="http://www.w3.org/2000/svg">
    <path d="M0 6.47c0-1.783.633-3.307 1.898-4.572C3.163.633 4.688 0 6.47 0s3.306.633 4.57 1.898c1.266 1.265 1.899 2.79 1.899 4.572a6.234 6.234 0 0 1-1.043 3.488l4.01 4.01a.356.356 0 0 1 0 .481l-1.457 1.457a.356.356 0 0 1-.48 0l-4.01-4.01a6.234 6.234 0 0 1-3.49 1.043c-1.782 0-3.306-.633-4.57-1.898C.632 9.776 0 8.25 0 6.47zm2.045 0c0 1.211.432 2.25 1.297 3.114.864.864 1.907 1.297 3.128 1.297 1.22 0 2.26-.43 3.12-1.29.86-.86 1.29-1.9 1.29-3.121s-.43-2.262-1.29-3.122c-.86-.86-1.9-1.29-3.12-1.29-1.221 0-2.264.433-3.128 1.297-.865.864-1.297 1.903-1.297 3.115z" fill="#A4A4A4" fill-rule="nonzero"/>
</svg>
