<svg width="36" height="32" viewBox="0 0 36 32" xmlns="http://www.w3.org/2000/svg">
    <g fill="#A4A4A4" fill-rule="nonzero">
        <path d="M35.272 24.938 22.005 2.314C21.133.878 19.628 0 17.965 0c-1.663 0-3.168.878-4.04 2.314L.66 24.938a4.586 4.586 0 0 0-.04 4.668C1.49 31.122 2.995 32 4.659 32H31.27a4.576 4.576 0 0 0 4.04-2.394 4.586 4.586 0 0 0-.04-4.668zm-1.545 3.75c-.515.878-1.426 1.436-2.416 1.436H4.62c-.99 0-1.94-.518-2.416-1.436-.515-.878-.515-1.955 0-2.793L15.55 3.232c.515-.878 1.426-1.357 2.416-1.357s1.94.519 2.416 1.357l13.346 22.623a2.991 2.991 0 0 1 0 2.833z"/>
        <path d="M17.965 8.421c-.616 0-1.123.552-1.123 1.223v9.905c0 .67.507 1.223 1.123 1.223s1.123-.552 1.123-1.223V9.645c0-.671-.507-1.224-1.123-1.224zM17.965 23.018c-.616 0-1.123.604-1.123 1.338v.691c0 .734.507 1.339 1.123 1.339s1.123-.605 1.123-1.339v-.69c0-.821-.507-1.34-1.123-1.34z"/>
    </g>
</svg>
