<svg width="144" height="128" viewBox="0 0 144 128" xmlns="http://www.w3.org/2000/svg">
    <g fill="#FFF" fill-rule="nonzero">
        <path d="M141.362 99.75 88.191 9.257C84.699 3.51 78.667 0 72 0c-6.666 0-12.698 3.511-16.19 9.257L2.639 99.75c-3.492 5.746-3.492 12.928-.16 18.673C5.973 124.49 12.005 128 18.67 128H125.33c6.667 0 12.856-3.511 16.19-9.577 3.333-5.745 3.333-12.927-.16-18.673h.002zm-6.19 15.002c-2.064 3.511-5.714 5.745-9.682 5.745H18.512c-3.968 0-7.778-2.075-9.682-5.745-2.064-3.511-2.064-7.82 0-11.172l53.489-90.653C64.383 9.416 68.033 7.501 72 7.501s7.778 2.075 9.682 5.426l53.489 90.493a11.945 11.945 0 0 1 0 11.331z"/>
        <path d="M72 34.474c-2.697 0-4.92 2.234-4.92 4.947v40.06c0 2.713 2.223 4.947 4.92 4.947 2.699 0 4.921-2.234 4.921-4.947V39.424c0-2.714-2.222-4.949-4.92-4.949v-.001zM72 93.526c-2.697 0-4.92 2.234-4.92 4.947v2.554c0 2.713 2.223 4.947 4.92 4.947 2.699 0 4.921-2.234 4.921-4.947v-2.554c0-3.033-2.222-4.947-4.92-4.947z"/>
    </g>
</svg>
