<svg width="168" height="128" viewBox="0 0 168 128" xmlns="http://www.w3.org/2000/svg" xmlns:xlink="http://www.w3.org/1999/xlink">
    <defs>
        <linearGradient x1="-5.303%" y1="26.426%" x2="154.991%" y2="82.2%" id="ep0907ak8b">
            <stop stop-color="#FFF5E8" offset="0%"/>
            <stop stop-color="#EECDDF" offset="100%"/>
        </linearGradient>
        <linearGradient x1="54.883%" y1="100%" x2="46.582%" y2="0%" id="ul57e1qc4c">
            <stop stop-color="#81E5E0" offset="0%"/>
            <stop stop-color="#4AC6BD" offset="100%"/>
        </linearGradient>
        <linearGradient x1="50%" y1="0%" x2="50%" y2="100%" id="fjfyxg9xkd">
            <stop stop-color="#50A5A0" offset="0%"/>
            <stop stop-color="#88D1CE" offset="100%"/>
        </linearGradient>
        <linearGradient x1="54.884%" y1="100%" x2="46.582%" y2="0%" id="vesmlhq7le">
            <stop stop-color="#81E5E0" offset="0%"/>
            <stop stop-color="#4AC6BD" offset="100%"/>
        </linearGradient>
        <linearGradient x1="50%" y1="0%" x2="50%" y2="100%" id="w3oqrn416f">
            <stop stop-color="#50A5A0" offset="0%"/>
            <stop stop-color="#88D1CE" offset="100%"/>
        </linearGradient>
        <linearGradient x1="54.883%" y1="100%" x2="46.582%" y2="0%" id="tg4d6xldbg">
            <stop stop-color="#81E5E0" offset="0%"/>
            <stop stop-color="#4AC6BD" offset="100%"/>
        </linearGradient>
        <linearGradient x1="50%" y1="0%" x2="50%" y2="100%" id="vvfcz6lj4h">
            <stop stop-color="#50A5A0" offset="0%"/>
            <stop stop-color="#88D1CE" offset="100%"/>
        </linearGradient>
        <linearGradient x1="89.819%" y1="55.08%" x2="3.82%" y2="42.13%" id="5g48w3vbmi">
            <stop stop-color="#FEFFFF" offset="0%"/>
            <stop stop-color="#ECEFFF" offset="100%"/>
        </linearGradient>
        <linearGradient x1="92.615%" y1="60.183%" x2="3.82%" y2="35.431%" id="4eo73uk7jj">
            <stop stop-color="#E2F4FF" offset="0%"/>
            <stop stop-color="#FEFCFF" offset="100%"/>
        </linearGradient>
        <linearGradient x1="92.615%" y1="52.015%" x2="3.82%" y2="47.117%" id="7xgd9avxhk">
            <stop stop-color="#FBF7FF" offset="0%"/>
            <stop stop-color="#E8F7FF" offset="100%"/>
        </linearGradient>
        <path d="M45.365 122.97s-6.662 5.731-13.057 3.86C16.502 122.205-7.576 103.438 2.31 72.765c9.677-30.024 28.123-19.275 40.65-47.653C47.599 14.607 59.049 5.607 70.745 2.245c26.97-7.753 61.227 4.937 66.26 32.44 7.215 39.428 59.897 53.777 6.347 84.489-9.806 5.623-37.941 8.274-61.827 7.656-19.345-.5-36.16-3.86-36.16-3.86z" id="nai0vpya7a"/>
    </defs>
    <g fill="none" fill-rule="evenodd">
        <use fill="url(#ep0907ak8b)" xlink:href="#nai0vpya7a" transform="translate(0 .779)"/>
        <g fill-rule="nonzero">
            <path d="M16.476 35.187c-.126 1.568-.431 3.154-.998 4.462-.035.08-.07.159-.107.236h-1.958l-.076-.236h-4.62c-1.42-2.108-2.45-5.394-2.35-9.504C6.593 20.8-5.676 4.88 3.268.61 9.908-2.557 17.666 7.24 15.512 15.057c-.97 3.522-1.153 6.302-.987 8.429.2 2.594.918 4.22 1.358 5.043.33.618.624 2.322.663 4.345.016.772-.007 1.544-.07 2.313z" fill="url(#ul57e1qc4c)" transform="translate(14.028 87.934)"/>
            <path d="M28.11 127.82h-.67l-.075-.236c-.491-1.539-1.022-3.14-1.565-4.785-2.806-8.489-5.707-17.267-5.38-22.506a.323.323 0 0 1 .336-.3.32.32 0 0 1 .298.34c-.312 5.03 2.592 13.922 5.216 21.859l.134.405c.528 1.6 1.043 3.159 1.526 4.66l.105.327c.026.078.05.158.075.235z" fill="#FFF"/>
            <path d="M31.821 23.568c-5.04 4.96-11.647 5.392-13.329 16.081-.012.077-.025.156-.036.236h-4.208l-.001-.003c-.047-.073-.096-.151-.15-.233a13.323 13.323 0 0 1-1.855-5.393c-.23-1.926-.102-4.239.774-6.88.426-1.326.93-2.625 1.51-3.89 1.744-3.718 2.787-3.304 4.337-10.184 1.95-8.653 3.212-8.883 6.193-8.307 7.552 1.461 12.041 13.383 6.765 18.573z" fill="url(#fjfyxg9xkd)" transform="translate(14.028 87.934)"/>
            <path d="M40.172 99.013c-3.253 3.942-6.16 13.087-8.725 21.155-.319 1.002-.632 1.99-.942 2.954a213.913 213.913 0 0 1-1.477 4.462c-.026.078-.052.159-.08.235h-.674l.001-.002.08-.233c.725-2.094 1.459-4.384 2.22-6.775l.265-.835c2.709-8.521 5.51-17.332 8.842-21.372a.32.32 0 0 1 .49.41z" fill="#FFF"/>
            <path d="M32.521 127.584c-.013.077-.025.155-.036.235H27.44l-.075-.235h5.156z" fill="#FFF"/>
        </g>
        <path d="M76.727 16.174 15.384 116.718c-2.999 4.914.516 11.233 6.247 11.233h122.687c5.731 0 9.245-6.319 6.247-11.233L89.222 16.174a7.321 7.321 0 0 0-6.248-3.517 7.321 7.321 0 0 0-6.247 3.517z" fill="#B1B1DB" fill-rule="nonzero"/>
        <g transform="translate(73.519 37.554)" fill="#FFF" fill-rule="nonzero">
            <ellipse cx="8.941" cy="74.047" rx="7.948" ry="8.448"/>
            <path d="M2.764 58.641h13.464L19.87 6.353S10.258-8.095 0 6.586l2.764 52.055z"/>
        </g>
        <g fill-rule="nonzero">
            <path d="M9.41 20.094a8.236 8.236 0 0 1-.57 2.548c-.02.046-.04.09-.062.135H7.66l-.043-.135H4.978c-.811-1.204-1.4-3.08-1.342-5.427.13-5.337-6.877-14.428-1.77-16.866 3.792-1.809 8.222 3.785 6.993 8.25-.555 2.011-.659 3.599-.564 4.813a7.17 7.17 0 0 0 .775 2.88c.189.353.357 1.326.379 2.481.01.441-.004.882-.04 1.321z" fill="url(#vesmlhq7le)" transform="translate(129.819 105.202)"/>
            <path d="M137.861 127.98h-.382l-.043-.135c-.28-.879-.584-1.793-.893-2.733-1.603-4.847-3.26-9.86-3.073-12.852a.184.184 0 0 1 .192-.172.18.18 0 0 1 .17.194c-.178 2.873 1.481 7.95 2.98 12.483l.076.232c.301.913.596 1.804.872 2.66l.06.188.041.134z" fill="#FFF"/>
            <path d="M18.172 13.459c-2.878 2.832-6.651 3.08-7.611 9.183l-.02.135H8.136v-.002l-.085-.133-.112-.187a7.607 7.607 0 0 1-.947-2.892 8.98 8.98 0 0 1 .44-3.93c.244-.757.532-1.499.863-2.222.996-2.123 1.592-1.886 2.477-5.815 1.114-4.941 1.834-5.072 3.537-4.743 4.312.834 6.875 7.642 3.862 10.606z" fill="url(#w3oqrn416f)" transform="translate(129.819 105.202)"/>
            <path d="M144.75 111.528c-1.859 2.252-3.52 7.474-4.983 12.082-.182.572-.361 1.136-.539 1.686-.284.888-.564 1.743-.843 2.549l-.046.134h-.385v-.001l.045-.133a162.26 162.26 0 0 0 1.268-3.87l.152-.476c1.547-4.867 3.146-9.898 5.05-12.205a.182.182 0 0 1 .321.1.183.183 0 0 1-.04.134z" fill="#FFF"/>
            <path d="M140.38 127.845a5.082 5.082 0 0 0-.02.134h-2.881l-.043-.134h2.944z" fill="#FFF"/>
        </g>
        <path d="M94.559 27.511s.195 17.818 5.152 17.758c5.59-.067-.813-18.52-.813-18.52s-2.568-1.008-4.34.762z" fill="#4AC6BD" fill-rule="nonzero"/>
        <path d="M115.266 44.487s-16.291-7.957-18.058-3.343c-2.4 6.266 16.412 8.683 16.412 8.683 2.963.082 3.742-3.756 1.646-5.34z" fill="#4AC6BD" fill-rule="nonzero"/>
        <path d="M103.757 66.924s.249-19.634 5.674-22.429c3.11-1.602 9.547-1.167 12.83 1.047 3.313 2.234.973 21.382.973 21.382h-19.477z" fill="#50A5A0" fill-rule="nonzero"/>
        <path d="M98.466 27.41s.587-.935.56-1.834c-.026-.9-.156-1.503.344-2.432.499-.93-.61-1.315-1.007-.49-.397.826-.836 2.225-1.678 1.418-.842-.807-.607-3.78-2.288-2.982 0 0-.227-1.351-.813-1.185-.586.166-.39 1.393-.39 1.393s-1.507-.657-.442 2.367c0 0-.776.08-.647.693.206.98 1.52 2.797 2.937 3.886 2.303 1.77 3.424-.835 3.424-.835z" fill="#FB8A60" fill-rule="nonzero"/>
        <path d="M94.397 21.09s-.076.81 1.245 3.414M93.195 21.297s.584 2.209 1.401 3.522M92.753 23.664s.588 1.018 1.088 1.804" stroke="#E56542" stroke-width="1.365"/>
        <path d="m134.288 118.709-5.47 5.515a1.053 1.053 0 0 0-.126 1.332 1.057 1.057 0 0 0 1.467.285l8.99-6.05-2.182-2.84-2.679 1.758z" fill="#1C5276" fill-rule="nonzero"/>
        <path d="m132.622 116.222 2.658-1.79 1.448 2.144a1.598 1.598 0 0 1-.432 2.22c-.734.494-1.73.301-2.226-.431l-1.448-2.143z" fill="#FB855F" fill-rule="nonzero"/>
        <path d="m108.835 123.625-7.626 1.52a1.056 1.056 0 0 0 .207 2.089h10.843l-.218-3.57-3.206-.039z" fill="#1C5276" fill-rule="nonzero"/>
        <path d="M108.72 121.092h3.206v2.584c0 .884-.718 1.6-1.603 1.6a1.601 1.601 0 0 1-1.603-1.6v-2.584z" fill="#FB855F" fill-rule="nonzero"/>
        <path d="M108.738 98.608a4.424 4.424 0 0 1-4.424-4.17c-.549-9.912-.79-20.065-.557-27.512h9.693c-.306 8.483-.381 18.355-.283 27.214a4.416 4.416 0 0 1-1.28 3.156 4.433 4.433 0 0 1-3.149 1.312z" fill="#424669" fill-rule="nonzero"/>
        <path d="M108.735 90.086c-1.217 0-2.379.5-3.213 1.384a4.398 4.398 0 0 0-1.193 3.282c.512 8.543 1.241 21.028 1.621 26.506h7.501c-.297-6.24-.207-19.035-.303-26.823a4.408 4.408 0 0 0-4.413-4.349zM118.52 98.608a4.424 4.424 0 0 1-4.423-4.17c-.549-9.912-.79-20.065-.557-27.512h9.694c-.307 8.483-.382 18.355-.284 27.214a4.416 4.416 0 0 1-1.28 3.157 4.434 4.434 0 0 1-3.15 1.311z" fill="#424669" fill-rule="nonzero"/>
        <path d="M116.037 90.538A4.397 4.397 0 0 0 115 96.865c5.212 6.797 12.812 16.741 16.197 21.07l6.219-4.186c-3.744-5.008-10.838-15.665-15.282-22.068a4.418 4.418 0 0 0-6.096-1.143z" fill="#424669" fill-rule="nonzero"/>
        <path d="M100.38 53.492s-.323-1.054-1.02-1.624c-.7-.57-1.24-.868-1.616-1.853-.375-.985-1.395-.402-1.03.438.367.84 1.136 2.089-.027 2.194-1.163.105-3.258-2.02-3.756-.23 0 0-1.171-.715-1.43-.164-.258.55.8 1.205.8 1.205s-1.486.705 1.5 1.885c0 0-.447.638.101.942.877.487 3.113.687 4.866.334 2.848-.575 1.611-3.127 1.611-3.127z" fill="#FD8B66" fill-rule="nonzero"/>
        <path d="M92.93 52.417s.564.588 3.4 1.299M92.3 53.458s2.054 1.007 3.584 1.252M93.801 55.343s1.156.224 2.079.363" stroke="#E56542" stroke-width="1.365"/>
        <path d="M115.208 46.962c-2.052 0-2.988-2.393-2.436-2.943a1.94 1.94 0 0 0 .387-.598h.001c.14-.333.233-.682.28-1.04l3.794-3.378c-.206 2.15.718 3.66 1.053 4.734.335 1.076-.745 3.225-3.08 3.225z" fill="#FB855F" fill-rule="nonzero"/>
        <path d="M116.568 41.546c-1.087 2.076-3.344 1.87-3.409 1.875.14-.333.233-.682.28-1.04.104-.06 4.15-2.782 3.13-.835z" fill="#E56542" fill-rule="nonzero"/>
        <path d="M120.987 35.14s-.163 1.962-3.023 3.984c-2.997 2.12.415-4.395.415-4.395l2.608.41z" fill="#8E3332" fill-rule="nonzero"/>
        <path d="M113.181 33.96s-.405 1.692-.93 3.59c-.75 2.714-.814 4.908 1.956 4.908 4.652 0 4.342-7.704 4.342-7.704l-5.368-.793z" fill="#FB855F" fill-rule="nonzero"/>
        <path d="M118.99 36.815c.733.299.225 2.159-1.372 2.341-1.23.141.244-2.802 1.373-2.341z" fill="#FB855F" fill-rule="nonzero"/>
        <path d="M111.237 57.917s1.79-3.927 2.756-5.544" stroke="#50A5A0" stroke-width="1.365"/>
        <path d="M100.799 41.483a.229.229 0 0 1-.213-.312c.327-.83 1.19-1.484 1.225-1.513a.228.228 0 1 1 .276.365c-.008.006-.796.607-1.075 1.316a.229.229 0 0 1-.213.144z" fill="#3B9E97" fill-rule="nonzero"/>
        <path fill="#424669" fill-rule="nonzero" d="m109.67 76.454 7.422-1.425-2.283-8.12-3.14-.142z"/>
        <path stroke="#24273B" stroke-width="1.365" d="m112.715 67.037-1.078 6.52 2.727 1.14M120.994 67.005l-.19 27.35 14.626 20.529M104.531 67.052l2.284 53.987"/>
        <path fill="#494E6D" fill-rule="nonzero" d="m129.272 115.657 1.924 2.278 6.219-4.186-1.926-2.65zM105.61 117.81l7.613.127.228 3.321h-7.5z"/>
        <path d="M120.987 35.14a11.446 11.446 0 0 1-5.512.052c-3.093-.712-3.997-3.561-3.997-3.561s2.95 1.14 5.52 1.092c2.568-.048 4.267 1.082 3.989 2.417z" fill="#8E3332" fill-rule="nonzero"/>
        <path d="M118.334 43.967s1.028.96-2.566 4.94c-3.556 3.937-6.197 6.32-6.52 18.145l-.388 3.815 14.257-.3.115-3.643s1.891-15.517-.258-20.491c-.812-1.885-4.64-2.466-4.64-2.466z" fill="#4AC6BD" fill-rule="nonzero"/>
        <path d="M117.586 46.75s-10.53 14.738-6.258 17.232c5.802 3.389 11.268-14.737 11.268-14.737.566-2.904-3.101-4.299-5.01-2.494z" fill="#4AC6BD" fill-rule="nonzero"/>
        <path d="M97.667 56.61s14.154 10.862 17.172 6.937c3.403-4.427-15.09-10.812-15.09-10.812s-2.382 1.391-2.082 3.874z" fill="#4AC6BD" fill-rule="nonzero"/>
        <path d="M112.835 59.297a.227.227 0 0 1-.161-.067c-1.205-1.202-5.6-3.234-5.645-3.255a.228.228 0 1 1 .191-.414c.183.084 4.516 2.087 5.777 3.346a.228.228 0 0 1-.162.39z" fill="#3B9E97" fill-rule="nonzero"/>
        <path d="M113.16 43.42s-5.895 4.38-6.711 13.378c-.816 8.998-.863 14.069-.863 14.069h-1.906s-.212-11.092 1.613-18.23c1.016-3.977 1.811-6.326 3.221-7.626 1.121-1.034 2.69-1.369 4.646-1.59z" fill="#4AC6BD" fill-rule="nonzero"/>
        <path d="M105.586 51.635a.229.229 0 0 1-.223-.275c.036-.173.91-4.268 2.752-6.107a.23.23 0 1 1 .324.323c-1.747 1.744-2.62 5.836-2.628 5.877a.229.229 0 0 1-.225.182zM112.215 64.626c-1.114 0-2.426-.356-3.92-1.066a19.684 19.684 0 0 1-3.141-1.883.228.228 0 0 1 .277-.363c.053.04 5.326 4.004 8.365 2.52 3.092-1.51 6.34-8.774 6.373-8.847a.229.229 0 1 1 .418.184c-.135.305-3.348 7.49-6.589 9.073a4.018 4.018 0 0 1-1.783.382z" fill="#3B9E97" fill-rule="nonzero"/>
        <g fill-rule="nonzero">
            <path d="M10.072 20.093c.053.875.246 1.735.57 2.549l.061.134h1.118l.043-.134h2.638c.811-1.205 1.4-3.08 1.343-5.428-.13-5.336 6.876-14.427 1.769-16.865-3.791-1.809-8.221 3.785-6.992 8.25.554 2.01.658 3.598.564 4.812a7.17 7.17 0 0 1-.775 2.88c-.189.353-.357 1.326-.379 2.482-.01.44.004.881.04 1.32z" fill="url(#tg4d6xldbg)" transform="translate(23.89 105.203)"/>
            <path d="M35.328 127.98h.383l.043-.135c.28-.879.583-1.793.893-2.732 1.602-4.847 3.259-9.86 3.073-12.852a.181.181 0 1 0-.363.023c.178 2.872-1.48 7.95-2.98 12.482l-.075.232c-.302.913-.596 1.804-.872 2.66l-.06.188c-.013.043-.027.09-.042.133z" fill="#FFF"/>
            <path d="M1.31 13.459c2.877 2.832 6.65 3.079 7.61 9.183.007.044.015.088.02.134h2.404l.001-.001.085-.133a7.609 7.609 0 0 0 1.06-3.08 8.98 8.98 0 0 0-.442-3.93 20.115 20.115 0 0 0-.862-2.22c-.997-2.124-1.592-1.887-2.477-5.816-1.114-4.941-1.834-5.072-3.537-4.743-4.312.834-6.875 7.641-3.863 10.606z" fill="url(#vvfcz6lj4h)" transform="translate(23.89 105.203)"/>
            <path d="M28.44 111.53c1.858 2.25 3.519 7.472 4.983 12.08.182.572.36 1.136.538 1.686.285.888.565 1.743.843 2.549l.046.134h.386v-.001l-.046-.133a162.265 162.265 0 0 1-1.267-3.87l-.152-.476c-1.547-4.866-3.146-9.898-5.05-12.204a.182.182 0 0 0-.321.1.183.183 0 0 0 .04.134z" fill="#FFF"/>
            <path d="m32.81 127.845.02.134h2.88l.044-.134H32.81z" fill="#FFF"/>
        </g>
        <path d="M25.506 64.083a4.067 4.067 0 0 0-.082 4.092 4.017 4.017 0 0 0 3.508 2.07h14.711a4.017 4.017 0 0 0 3.51-2.07 4.067 4.067 0 0 0-.083-4.092l-7.355-12.055a4.016 4.016 0 0 0-3.427-1.928c-1.397 0-2.695.73-3.426 1.928l-7.356 12.055z" fill="#EA6868" fill-rule="nonzero"/>
        <g transform="translate(34.885 54.743)" fill="#FFF" fill-rule="nonzero">
            <ellipse cx="1.434" cy="11.705" rx="1.289" ry="1.297"/>
            <path d="M.433 9.234h2.112L3.116 1S1.61-1.275 0 1.037l.433 8.197z"/>
        </g>
        <g fill-rule="nonzero">
            <path d="m131.389 72.182-4.813 7.888a4.067 4.067 0 0 0-.082 4.092 4.017 4.017 0 0 0 3.509 2.07h9.626a4.017 4.017 0 0 0 3.51-2.07 4.067 4.067 0 0 0-.083-4.092l-4.813-7.889a4.016 4.016 0 0 0-3.427-1.929c-1.398 0-2.696.73-3.427 1.93z" fill="#EA6868"/>
            <g transform="translate(133.658 73.44)" fill="#FFF">
                <ellipse cx="1.183" cy="9.659" rx="1.064" ry="1.07"/>
                <path d="M.358 7.62H2.1L2.572.825S1.328-1.052 0 .855L.358 7.62z"/>
            </g>
        </g>
        <path d="m57.355 1.93-4.813 7.888a4.067 4.067 0 0 0-.082 4.092 4.017 4.017 0 0 0 3.509 2.07h9.626a4.017 4.017 0 0 0 3.509-2.07 4.067 4.067 0 0 0-.082-4.092L64.209 1.93A4.016 4.016 0 0 0 60.782 0c-1.398 0-2.696.73-3.427 1.93z" fill="#EA6868" fill-rule="nonzero"/>
        <g transform="translate(59.624 3.187)" fill="#FFF" fill-rule="nonzero">
            <ellipse cx="1.183" cy="9.659" rx="1.064" ry="1.07"/>
            <path d="M.358 7.62H2.1L2.572.825S1.328-1.052 0 .855L.358 7.62z"/>
        </g>
        <path d="M16.467 36.157c3.387-5.874 6.54-8.106 9.459-6.696 3.678-4.053 4.3-5.04 9.108-5.463 4.807-.422 6.83 2.467 9.108 5.463 3.152 0 6.13 1.586 7.18 2.467.701.587 1.344 1.997 1.927 4.23H16.467z" fill-opacity=".7" fill="url(#5g48w3vbmi)"/>
        <path d="M126.99 45.336c1.875-5.642 4.012-11.043 8.82-11.465 4.806-.422 6.83 2.467 9.107 5.463 3.153 0 6.13 1.586 7.181 2.467.7.587 1.343 1.997 1.927 4.229-13.336-.463-22.347-.694-27.035-.694z" fill-opacity=".7" fill="url(#4eo73uk7jj)" transform="matrix(-1 0 0 1 281.015 0)"/>
        <path d="M101.405 12.226c1.707-4.358 4.201-5.745 7.483-4.16 4.135-4.557 13.784-2.18 16.344 1.189 2.363 0 5.514.99 9.452 2.971h-33.28z" fill-opacity=".7" fill="url(#7xgd9avxhk)"/>
    </g>
</svg>
